<?xml version="1.0" encoding="utf-8"?>
<!-- Generator: Adobe Illustrator 23.0.4, SVG Export Plug-In . SVG Version: 6.00 Build 0)  -->
<svg version="1.1" id="Capa_1" xmlns="http://www.w3.org/2000/svg" xmlns:xlink="http://www.w3.org/1999/xlink" x="0px" y="0px"
	 viewBox="0 0 51 44" style="enable-background:new 0 0 51 44;" xml:space="preserve">
<style type="text/css">
	.st0{fill:#FFDC00;}
</style>
<g id="u6722_2_" transform="translate(0)">
	<path id="Trazado_23_2_" class="st0" d="M18.4,10.2V8.4h2.1v1.7h7.2V8.4h2.1v1.7H39v0.7c0,5.5,0,11,0,16.4c0,0.4-0.1,0.7-0.4,1
		c-2.3,2.3-4.6,4.6-6.9,6.9c-0.2,0.2-0.4,0.3-0.7,0.4c-7.1,0-14.3,0-21.4,0c-0.1,0-0.2,0-0.4,0c0-8.4,0-16.8,0-25.2H18.4z
		 M36.9,17.9H11.3v15.4H30v-7h7C36.9,23.5,36.9,20.7,36.9,17.9z M18.4,12.3h-7.1v3.4h25.6v-3.4h-7.1v1.3h-2.1c0-0.5,0-0.9-0.1-1.3
		h-7.1v1.6h-2.1C18.4,13.4,18.4,12.9,18.4,12.3z M35.2,28.5h-3.1v3.2C33.2,30.6,34.2,29.5,35.2,28.5z"/>
	<path id="Trazado_24_2_" class="st0" d="M16.1,24.2v-3.4h3.5v3.4H16.1z"/>
	<path id="Trazado_25_2_" class="st0" d="M22.4,24.2v-3.4h3.4v3.4H22.4z"/>
	<path id="Trazado_26_2_" class="st0" d="M32.1,24.2h-3.4v-3.5h3.4V24.2z"/>
	<path id="Trazado_27_2_" class="st0" d="M19.5,30.5h-3.4v-3.4h3.4V30.5z"/>
	<path id="Trazado_28_2_" class="st0" d="M22.4,30.5v-3.4h3.5v3.4H22.4z"/>
</g>
</svg>
