<?xml version="1.0" encoding="utf-8"?>
<!-- Generator: Adobe Illustrator 23.0.6, SVG Export Plug-In . SVG Version: 6.00 Build 0)  -->
<svg version="1.1" id="Capa_1" xmlns="http://www.w3.org/2000/svg" xmlns:xlink="http://www.w3.org/1999/xlink" x="0px" y="0px"
	 viewBox="0 0 77.5 77.5" style="enable-background:new 0 0 77.5 77.5;" xml:space="preserve">
<style type="text/css">
	.st0{fill:none;stroke:#000000;stroke-width:4;stroke-linejoin:round;stroke-miterlimit:10;}
	.st1{fill:none;stroke:#000000;stroke-width:4;stroke-linejoin:round;}
	.st2{fill:none;stroke:#000000;stroke-width:4;stroke-linejoin:round;stroke-dasharray:20.0197,3.3366;}
	.st3{fill:none;stroke:#000000;stroke-width:4;stroke-linecap:round;stroke-linejoin:round;}
	.st4{fill:none;stroke:#000000;stroke-width:4;stroke-linecap:round;stroke-linejoin:round;stroke-dasharray:0.4762,7.6194;}
	
		.st5{fill:none;stroke:#000000;stroke-width:4;stroke-linecap:round;stroke-linejoin:round;stroke-miterlimit:10;stroke-dasharray:0.5,8;}
	.st6{fill:none;stroke:#000000;stroke-width:4;stroke-linejoin:round;stroke-miterlimit:10;stroke-dasharray:30,5;}
</style>
<g>
	<path d="M6.8,73H6.6c-1.1,0-2-0.9-2-2v-0.2c0-1.1,0.9-2,2-2c0.6,0,1.2,0.3,1.5,0.7c0.4,0.4,0.7,0.9,0.7,1.5C8.8,72.1,7.9,73,6.8,73
		"/>
	<path d="M14.9,73h-0.5c-1.1,0-2-0.9-2-2c0-1.1,0.9-2,2-2h0.5c1.1,0,2,0.9,2,2C16.9,72.1,16,73,14.9,73 M22.9,73h-0.5
		c-1.1,0-2-0.9-2-2c0-1.1,0.9-2,2-2h0.5c1.1,0,2,0.9,2,2C24.9,72.1,24,73,22.9,73 M30.9,73h-0.5c-1.1,0-2-0.9-2-2c0-1.1,0.9-2,2-2
		h0.5c1.1,0,2,0.9,2,2C32.9,72.1,32.1,73,30.9,73 M39,73h-0.5c-1.1,0-2-0.9-2-2c0-1.1,0.9-2,2-2H39c1.1,0,2,0.9,2,2
		C41,72.1,40.1,73,39,73 M47,73h-0.5c-1.1,0-2-0.9-2-2c0-1.1,0.9-2,2-2H47c1.1,0,2,0.9,2,2C49,72.1,48.1,73,47,73 M55.1,73h-0.5
		c-1.1,0-2-0.9-2-2c0-1.1,0.9-2,2-2h0.5c1.1,0,2,0.9,2,2C57.1,72.1,56.2,73,55.1,73 M63.1,73h-0.5c-1.1,0-2-0.9-2-2c0-1.1,0.9-2,2-2
		h0.5c1.1,0,2,0.9,2,2C65.1,72.1,64.2,73,63.1,73"/>
	<path d="M71,73h-0.2c-1.1,0-2-0.9-2-2c0-0.6,0.3-1.2,0.7-1.5c0.4-0.4,0.9-0.7,1.5-0.7c1.1,0,2,0.9,2,2V71C73,72.1,72.1,73,71,73"/>
	<path d="M71,16.9c-1.1,0-2-0.9-2-2v-0.5c0-1.1,0.9-2,2-2c1.1,0,2,0.9,2,2v0.5C73,16,72.1,16.9,71,16.9 M71,24.9c-1.1,0-2-0.9-2-2
		v-0.5c0-1.1,0.9-2,2-2c1.1,0,2,0.9,2,2v0.5C73,24,72.1,24.9,71,24.9 M71,32.9c-1.1,0-2-0.9-2-2v-0.5c0-1.1,0.9-2,2-2
		c1.1,0,2,0.9,2,2v0.5C73,32.1,72.1,32.9,71,32.9 M71,41c-1.1,0-2-0.9-2-2v-0.5c0-1.1,0.9-2,2-2c1.1,0,2,0.9,2,2V39
		C73,40.1,72.1,41,71,41 M71,49c-1.1,0-2-0.9-2-2v-0.5c0-1.1,0.9-2,2-2c1.1,0,2,0.9,2,2V47C73,48.1,72.1,49,71,49 M71,57.1
		c-1.1,0-2-0.9-2-2v-0.5c0-1.1,0.9-2,2-2c1.1,0,2,0.9,2,2v0.5C73,56.2,72.1,57.1,71,57.1 M71,65.1c-1.1,0-2-0.9-2-2v-0.5
		c0-1.1,0.9-2,2-2c1.1,0,2,0.9,2,2v0.5C73,64.2,72.1,65.1,71,65.1"/>
	<path d="M71,8.8c-0.6,0-1.2-0.3-1.5-0.7c-0.4-0.4-0.7-0.9-0.7-1.5c0-1.1,0.9-2,2-2H71c1.1,0,2,0.9,2,2v0.2C73,7.9,72.1,8.8,71,8.8"
		/>
	<path d="M14.9,8.6h-0.5c-1.1,0-2-0.9-2-2c0-1.1,0.9-2,2-2h0.5c1.1,0,2,0.9,2,2C16.9,7.7,16,8.6,14.9,8.6 M22.9,8.6h-0.5
		c-1.1,0-2-0.9-2-2c0-1.1,0.9-2,2-2h0.5c1.1,0,2,0.9,2,2C24.9,7.7,24,8.6,22.9,8.6 M30.9,8.6h-0.5c-1.1,0-2-0.9-2-2c0-1.1,0.9-2,2-2
		h0.5c1.1,0,2,0.9,2,2C32.9,7.7,32.1,8.6,30.9,8.6 M39,8.6h-0.5c-1.1,0-2-0.9-2-2c0-1.1,0.9-2,2-2H39c1.1,0,2,0.9,2,2
		C41,7.7,40.1,8.6,39,8.6 M47,8.6h-0.5c-1.1,0-2-0.9-2-2c0-1.1,0.9-2,2-2H47c1.1,0,2,0.9,2,2C49,7.7,48.1,8.6,47,8.6 M55.1,8.6h-0.5
		c-1.1,0-2-0.9-2-2c0-1.1,0.9-2,2-2h0.5c1.1,0,2,0.9,2,2C57.1,7.7,56.2,8.6,55.1,8.6 M63.1,8.6h-0.5c-1.1,0-2-0.9-2-2
		c0-1.1,0.9-2,2-2h0.5c1.1,0,2,0.9,2,2C65.1,7.7,64.2,8.6,63.1,8.6"/>
	<path d="M6.6,8.8c-1.1,0-2-0.9-2-2V6.6c0-1.1,0.9-2,2-2h0.2c1.1,0,2,0.9,2,2c0,0.6-0.3,1.2-0.7,1.5C7.7,8.5,7.2,8.8,6.6,8.8"/>
	<path d="M6.6,16.9c-1.1,0-2-0.9-2-2v-0.5c0-1.1,0.9-2,2-2c1.1,0,2,0.9,2,2v0.5C8.6,16,7.7,16.9,6.6,16.9 M6.6,24.9
		c-1.1,0-2-0.9-2-2v-0.5c0-1.1,0.9-2,2-2c1.1,0,2,0.9,2,2v0.5C8.6,24,7.7,24.9,6.6,24.9 M6.6,32.9c-1.1,0-2-0.9-2-2v-0.5
		c0-1.1,0.9-2,2-2c1.1,0,2,0.9,2,2v0.5C8.6,32.1,7.7,32.9,6.6,32.9 M6.6,41c-1.1,0-2-0.9-2-2v-0.5c0-1.1,0.9-2,2-2c1.1,0,2,0.9,2,2
		V39C8.6,40.1,7.7,41,6.6,41 M6.6,49c-1.1,0-2-0.9-2-2v-0.5c0-1.1,0.9-2,2-2c1.1,0,2,0.9,2,2V47C8.6,48.1,7.7,49,6.6,49 M6.6,57.1
		c-1.1,0-2-0.9-2-2v-0.5c0-1.1,0.9-2,2-2c1.1,0,2,0.9,2,2v0.5C8.6,56.2,7.7,57.1,6.6,57.1 M6.6,65.1c-1.1,0-2-0.9-2-2v-0.5
		c0-1.1,0.9-2,2-2c1.1,0,2,0.9,2,2v0.5C8.6,64.2,7.7,65.1,6.6,65.1"/>
</g>
<polygon points="51.5,58.3 38.8,51.6 26.1,58.3 28.5,44.2 18.2,34.1 32.4,32.1 38.8,19.2 45.1,32.1 59.3,34.1 49,44.2 "/>
</svg>
