<svg xmlns="http://www.w3.org/2000/svg" width="116.25" height="45.5">
 <style type="text/css">.st0{fill:#FFFFFF;}</style>

 <g>
  <title>background</title>
  <rect x="-1" y="-1" width="118.25" height="47.5" id="canvas_background" fill="none"></rect>
 </g>
 <g>
  <title>Layer 1</title>
  <g stroke="null" id="svg_1">
   <g stroke="null" id="svg_2">
    <path stroke="null" class="st0" d="m0.524428,13.942563l0,-13.97072l6.481911,0l0,1.258624l-4.614952,0l0,4.87367l4.146465,0l0,1.237646l-4.146465,0l0,5.342157l4.60796,0l0,1.258624l-6.474918,0l0,-0.000001z" id="svg_3"></path>
    <path stroke="null" class="st0" d="m13.628096,14.145341c-3.146559,0 -4.789761,-2.195599 -4.789761,-5.461027c0,-3.230466 1.622226,-5.810645 4.789761,-5.810645c0.545404,0 1.097799,0.062931 1.685157,0.223755l0,-5.097425l1.769065,0l0,15.376182c-0.734197,0.440519 -2.013797,0.769159 -3.454222,0.769159l0,0.000001zm1.685157,-10.013048c-0.426534,-0.11887 -0.915999,-0.202779 -1.384486,-0.202779c-2.475292,0 -3.307382,2.174621 -3.307382,4.572999c0,2.580178 0.874044,4.468113 3.104605,4.468113c0.734197,0 1.216669,-0.104885 1.587264,-0.307664l0,-8.53067z" id="svg_4"></path>
    <path stroke="null" class="st0" d="m23.969785,14.145341c-2.622132,0 -3.999625,-1.118776 -3.999625,-3.573092l0,-7.57971l1.790042,0l0,7.635649c0,1.524333 0.71322,2.293491 2.23056,2.293491c0.692243,0 1.482379,-0.11887 1.950866,-0.363602l0,-9.565537l1.790042,0l0,10.334696c-0.839082,0.454503 -2.342438,0.818105 -3.761885,0.818105l-0.000001,0.000001z" id="svg_5"></path>
    <path stroke="null" class="st0" d="m34.430344,14.145341c-2.643109,0 -4.244357,-2.335446 -4.244357,-5.684782s1.622226,-5.663805 4.244357,-5.663805c1.013891,0 1.866958,0.26571 2.454316,0.706228l-0.426534,1.055845c-0.426534,-0.321649 -1.076822,-0.552396 -1.727111,-0.552396c-1.748088,0 -2.720025,1.887935 -2.720025,4.405182c0,2.475292 0.992914,4.426159 2.720025,4.426159c0.650289,0 1.2796,-0.202779 1.706134,-0.531419l0.44751,1.118776c-0.587358,0.454503 -1.440425,0.720212 -2.454316,0.720212l0.000001,0z" id="svg_6"></path>
    <path stroke="null" class="st0" d="m42.660342,14.145341c-2.622132,0 -4.16045,-1.139754 -4.16045,-3.307382c0,-2.643109 2.601155,-3.657 6.132292,-3.999625l0,-0.671266c0,-1.503356 -0.811113,-2.174621 -2.335446,-2.174621c-0.95096,0 -1.99282,0.286686 -2.741002,0.692243l-0.426534,-1.097799c0.915999,-0.468488 2.153645,-0.790136 3.32836,-0.790136c2.3774,0 3.838801,1.118776 3.838801,3.552115l0,7.027314c-0.874044,0.461495 -2.174621,0.769159 -3.636024,0.769159l0.000002,0zm1.971844,-6.377025c-2.782956,0.321649 -4.426159,1.097799 -4.426159,3.027689c0,1.482379 0.915999,2.314469 2.622132,2.314469c0.692243,0 1.377494,-0.139847 1.804027,-0.363602l0,-4.978555l-0.000001,0z" id="svg_7"></path>
    <path stroke="null" class="st0" d="m53.002031,14.145341c-2.643109,0 -4.244357,-2.335446 -4.244357,-5.684782s1.622226,-5.663805 4.244357,-5.663805c1.013891,0 1.866958,0.26571 2.454316,0.706228l-0.426534,1.055845c-0.419541,-0.321649 -1.076822,-0.545404 -1.720119,-0.545404c-1.748088,0 -2.720025,1.887935 -2.720025,4.405182c0,2.475292 0.992914,4.426159 2.720025,4.426159c0.650289,0 1.2796,-0.202779 1.706134,-0.531419l0.44751,1.118776c-0.59435,0.44751 -1.447417,0.71322 -2.461308,0.71322z" id="svg_8"></path>
    <path stroke="null" class="st0" d="m58.630874,0.901826c-0.587358,0 -1.076822,-0.44751 -1.076822,-0.992914c0,-0.552396 0.489465,-0.992914 1.076822,-0.992914s1.076822,0.44751 1.076822,0.992914c0,0.545404 -0.489465,0.992914 -1.076822,0.992914zm-0.895021,13.040737l0,-10.950023l1.78305,0l0,10.950023l-1.78305,0z" id="svg_9"></path>
    <path stroke="null" class="st0" d="m66.434339,14.145341c-2.964757,0 -4.328266,-2.398376 -4.328266,-5.684782c0,-3.272421 1.363509,-5.663805 4.328266,-5.663805c2.964757,0 4.328266,2.398376 4.328266,5.663805c-0.006992,3.286405 -1.363509,5.684782 -4.328266,5.684782zm0,-10.215826c-1.908912,0 -2.538224,2.048759 -2.538224,4.48909c0,2.440331 0.629311,4.531044 2.538224,4.531044s2.538224,-2.090714 2.538224,-4.531044c0,-2.440331 -0.629311,-4.48909 -2.538224,-4.48909zm0.223755,-2.153645l-1.034869,0l1.482379,-2.782956c0.26571,-0.202779 0.629311,-0.307664 0.978929,-0.307664c0.363602,0 0.71322,0.139847 0.874044,0.426534l-2.300484,2.664086l0.000001,0z" id="svg_10"></path>
    <path stroke="null" class="st0" d="m79.391168,13.942563l0,-7.55174c0,-1.643203 -0.671266,-2.454316 -2.454316,-2.454316c-0.748181,0 -1.356516,0.11887 -1.929889,0.363602l0,9.649446l-1.790042,0l0,-10.383643c1.013891,-0.468488 2.356423,-0.769159 3.712939,-0.769159c2.94378,0 4.244357,1.2796 4.244357,3.594069l0,7.55174l-1.78305,0l0.000001,0.000001z" id="svg_11"></path>
    <path stroke="null" class="st0" d="m5.754707,32.800937c-4.04158,0 -5.754706,-3.705946 -5.754706,-7.509786c0,-3.810832 1.713126,-7.509786 5.754706,-7.509786c1.314562,0 2.34943,0.293679 3.174528,0.846075l-0.741189,2.097706c-0.468488,-0.272701 -1.013891,-0.468488 -1.75508,-0.468488c-2.160637,0 -2.901826,2.517246 -2.901826,4.99254c0,2.412361 0.825097,4.929609 2.880849,4.929609c0.699235,0 1.272609,-0.188794 1.713126,-0.468488l0.80412,2.223568c-0.825097,0.552396 -1.859966,0.867051 -3.174528,0.867051l0,-0.000001z" id="svg_12"></path>
    <path stroke="null" class="st0" d="m15.06852,32.800937c-3.405275,0 -5.139379,-2.49627 -5.139379,-5.9435s1.734104,-5.922522 5.139379,-5.922522s5.139379,2.475292 5.139379,5.922522s-1.734104,5.9435 -5.139379,5.9435zm0,-9.83824c-1.377494,0 -1.838989,1.608241 -1.838989,3.831809c0,2.223568 0.468488,3.873764 1.838989,3.873764s1.838989,-1.650195 1.838989,-3.873764c0,-2.223568 -0.461495,-3.831809 -1.838989,-3.831809z" id="svg_13"></path>
    <path stroke="null" class="st0" d="m28.759546,32.570189l0,-7.726549c0,-1.251631 -0.531419,-1.859966 -1.838989,-1.859966c-0.510441,0 -0.909006,0.083909 -1.314562,0.230748l0,9.355767l-3.30039,0l0,-10.796192c1.293585,-0.552396 2.859872,-0.825097 4.614952,-0.825097c3.594069,0 5.139379,1.461401 5.139379,3.915717l0,7.705572l-3.30039,0z" id="svg_14"></path>
    <path stroke="null" class="st0" d="m38.478916,32.738005c-2.181614,0 -3.405275,-1.223661 -3.405275,-3.384299l0,-6.076354l-1.230654,0l0,-2.118683l1.223661,0l0,-2.433339l3.30039,-0.867051l0,3.30039l1.776057,0l0,2.118683l-1.776057,0l0,6.076354c0,0.762166 0.398564,1.16073 1.076822,1.16073c0.251725,0 0.489465,-0.041954 0.699235,-0.125862l0,2.027782c-0.35661,0.195786 -0.943967,0.321649 -1.66418,0.321649z" id="svg_15"></path>
    <path stroke="null" class="st0" d="m43.835057,19.445544c-0.971937,0 -1.75508,-0.699235 -1.75508,-1.566287s0.783144,-1.54531 1.75508,-1.54531c0.971937,0 1.75508,0.678259 1.75508,1.54531s-0.783144,1.566287 -1.75508,1.566287zm-1.650195,13.124645l0,-11.411519l3.30039,0l0,11.404526l-3.30039,0l0,0.006992z" id="svg_16"></path>
    <path stroke="null" class="st0" d="m54.498394,32.570189l0,-7.726549c0,-1.251631 -0.531419,-1.859966 -1.838989,-1.859966c-0.510441,0 -0.909006,0.083909 -1.314562,0.230748l0,9.355767l-3.30039,0l0,-10.796192c1.293585,-0.552396 2.859872,-0.825097 4.614952,-0.825097c3.601061,0 5.139379,1.461401 5.139379,3.915717l0,7.705572l-3.30039,0z" id="svg_17"></path>
    <path stroke="null" class="st0" d="m65.252632,32.800937c-3.279414,0 -4.950585,-1.209677 -4.950585,-4.020602l0,-7.621664l3.30039,0l0,7.768503c0,1.097799 0.59435,1.671172 1.692149,1.671172c0.468488,0 0.971937,-0.104885 1.314562,-0.251725l0,-9.187951l3.30039,0l0,10.768222c-1.083815,0.510441 -2.901826,0.874044 -4.656906,0.874044z" id="svg_18"></path>
    <path stroke="null" class="st0" d="m76.908883,32.800937c-3.258436,0 -5.013516,-1.223661 -5.013516,-3.615046c0,-2.810926 2.873856,-3.726924 6.39101,-4.062556l0,-0.510441c0,-1.097799 -0.699235,-1.587264 -1.971844,-1.587264c-1.055845,0 -2.223568,0.314656 -3.048666,0.720212l-0.720212,-1.950866c1.139754,-0.510441 2.747995,-0.867051 4.25135,-0.867051c2.789949,0 4.572999,1.181707 4.572999,4.167442l0,6.852505c-0.964945,0.510441 -2.531231,0.853067 -4.461121,0.853067l0.000001,-0.000002zm1.377494,-6.139285c-2.202591,0.230748 -3.30039,0.909006 -3.30039,2.391385c0,1.272609 0.741189,1.90192 2.097706,1.90192c0.489465,0 0.909006,-0.062931 1.209677,-0.20977l0,-4.083534l-0.006992,0l-0.000001,-0.000001z" id="svg_19"></path>
   </g>
   <g stroke="null" id="svg_20">
    <path stroke="null" class="st0" d="m25.004653,40.611394l-0.468488,0l-1.181707,-4.034587l0.56638,0l0.741189,2.838895c0.055939,0.202779 0.097893,0.398564 0.125862,0.59435l0.013985,0c0.02797,-0.188794 0.062931,-0.391571 0.11887,-0.59435l0.762166,-2.838895l0.517434,0l-1.195692,4.034587l0.000001,0z" id="svg_21"></path>
    <path stroke="null" class="st0" d="m27.039428,36.849509c-0.167816,0 -0.307664,-0.125862 -0.307664,-0.286686c0,-0.160824 0.139847,-0.286686 0.307664,-0.286686c0.167816,0 0.307664,0.125862 0.307664,0.286686c0,0.153831 -0.139847,0.286686 -0.307664,0.286686zm-0.258717,3.761885l0,-3.160544l0.517434,0l0,3.160544l-0.517434,0z" id="svg_22"></path>
    <path stroke="null" class="st0" d="m29.235026,40.674325c-0.762166,0 -1.223661,-0.678259 -1.223661,-1.643203c0,-0.964945 0.468488,-1.63621 1.223661,-1.63621c0.293679,0 0.538411,0.076916 0.706228,0.202779l-0.125862,0.307664c-0.125862,-0.0909 -0.307664,-0.160824 -0.496457,-0.160824c-0.503449,0 -0.783144,0.545404 -0.783144,1.272609c0,0.71322 0.286686,1.2796 0.783144,1.2796c0.188794,0 0.370595,-0.055939 0.489465,-0.153831l0.125862,0.321649c-0.153831,0.132855 -0.405556,0.20977 -0.699235,0.20977l0,-0.000002z" id="svg_23"></path>
    <path stroke="null" class="st0" d="m30.82229,39.2339c0.048946,0.650289 0.377587,1.06983 0.971937,1.06983c0.286686,0 0.59435,-0.083909 0.769159,-0.188794l0.132855,0.335633c-0.223755,0.125862 -0.587358,0.223755 -0.957952,0.223755c-0.902014,0 -1.419447,-0.622319 -1.419447,-1.650195c0,-0.992914 0.47548,-1.629218 1.2796,-1.629218c0.755174,0 1.209677,0.496457 1.209677,1.489371l0,0.055939l-1.985828,0.293679l-0.000001,0zm0.769159,-1.51734c-0.524426,0 -0.790136,0.496457 -0.790136,1.209677l0,0.02797l1.510348,-0.23774c-0.013985,-0.636304 -0.230748,-0.999906 -0.720212,-0.999906l0.000001,-0.000001z" id="svg_24"></path>
    <path stroke="null" class="st0" d="m34.724022,37.800469c-0.0909,-0.034961 -0.202779,-0.055939 -0.321649,-0.055939c-0.139847,0 -0.286686,0.020977 -0.398564,0.083909l0,2.782956l-0.517434,0l0,-2.992726c0.272701,-0.132855 0.629311,-0.223755 1.076822,-0.223755c0.11887,0 0.244732,0.013985 0.272701,0.020977l-0.111878,0.38458l0,-0.000002z" id="svg_25"></path>
    <path stroke="null" class="st0" d="m36.583988,37.800469c-0.0909,-0.034961 -0.202779,-0.055939 -0.321649,-0.055939c-0.139847,0 -0.286686,0.020977 -0.398564,0.083909l0,2.782956l-0.517434,0l0,-2.992726c0.272701,-0.132855 0.629311,-0.223755 1.076822,-0.223755c0.11887,0 0.244732,0.013985 0.272701,0.020977l-0.111878,0.38458l0,-0.000002z" id="svg_26"></path>
    <path stroke="null" class="st0" d="m37.499986,39.2339c0.048946,0.650289 0.377587,1.06983 0.971937,1.06983c0.286686,0 0.59435,-0.083909 0.769159,-0.188794l0.132855,0.335633c-0.223755,0.125862 -0.587358,0.223755 -0.957952,0.223755c-0.902014,0 -1.419447,-0.622319 -1.419447,-1.650195c0,-0.992914 0.47548,-1.629218 1.2796,-1.629218c0.755174,0 1.209677,0.496457 1.209677,1.489371l0,0.055939l-1.985828,0.293679l-0.000001,0zm0.769159,-1.51734c-0.524426,0 -0.790136,0.496457 -0.790136,1.209677l0,0.02797l1.510348,-0.23774c-0.013985,-0.636304 -0.230748,-0.999906 -0.720212,-0.999906l0.000001,-0.000001z" id="svg_27"></path>
    <path stroke="null" class="st0" d="m41.268865,40.674325c-0.762166,0 -1.223661,-0.678259 -1.223661,-1.643203c0,-0.964945 0.468488,-1.63621 1.223661,-1.63621c0.293679,0 0.538411,0.076916 0.706228,0.202779l-0.125862,0.307664c-0.125862,-0.0909 -0.307664,-0.160824 -0.496457,-0.160824c-0.503449,0 -0.783144,0.545404 -0.783144,1.272609c0,0.71322 0.286686,1.2796 0.783144,1.2796c0.188794,0 0.370595,-0.055939 0.489465,-0.153831l0.125862,0.321649c-0.160824,0.132855 -0.405556,0.20977 -0.699235,0.20977l0,-0.000002z" id="svg_28"></path>
    <path stroke="null" class="st0" d="m43.562356,40.639364c-0.454503,0 -0.755174,-0.272701 -0.755174,-0.797129l0,-2.069736l-0.363602,0l0,-0.321649l0.363602,0l0,-0.727205l0.517434,-0.160824l0,0.888029l0.552396,0l0,0.321649l-0.552396,0l0,2.069736c0,0.272701 0.132855,0.440519 0.391571,0.440519c0.055939,0 0.111878,-0.006992 0.160824,-0.020977l0,0.32864c-0.083909,0.034961 -0.188794,0.048946 -0.314656,0.048946l0.000001,0.000001z" id="svg_29"></path>
    <path stroke="null" class="st0" d="m45.569161,40.674325c-0.853067,0 -1.251631,-0.692243 -1.251631,-1.643203c0,-0.943967 0.391571,-1.63621 1.251631,-1.63621c0.853067,0 1.251631,0.692243 1.251631,1.63621c0,0.95096 -0.398564,1.643203 -1.251631,1.643203zm0,-2.950772c-0.552396,0 -0.734197,0.59435 -0.734197,1.293585c0,0.706228 0.181801,1.30757 0.734197,1.30757c0.552396,0 0.734197,-0.601342 0.734197,-1.30757c0,-0.706228 -0.181801,-1.293585 -0.734197,-1.293585z" id="svg_30"></path>
    <path stroke="null" class="st0" d="m48.736696,37.800469c-0.0909,-0.034961 -0.202779,-0.055939 -0.321649,-0.055939c-0.139847,0 -0.286686,0.020977 -0.398564,0.083909l0,2.782956l-0.517434,0l0,-2.992726c0.272701,-0.132855 0.629311,-0.223755 1.076822,-0.223755c0.11887,0 0.244732,0.013985 0.272701,0.020977l-0.111878,0.38458l0,-0.000002z" id="svg_31"></path>
    <path stroke="null" class="st0" d="m49.659687,37.108225l-0.293679,0l0.426534,-0.80412c0.076916,-0.055939 0.181801,-0.0909 0.279694,-0.0909c0.104885,0 0.202779,0.041954 0.251725,0.125862l-0.664274,0.769159l0,-0.000001zm-0.26571,3.503169l0,-3.160544l0.517434,0l0,3.160544l-0.517434,0z" id="svg_32"></path>
    <path stroke="null" class="st0" d="m51.792354,40.674325c-0.755174,0 -1.202685,-0.32864 -1.202685,-0.957952c0,-0.762166 0.748181,-1.055845 1.769065,-1.153739l0,-0.195786c0,-0.433526 -0.230748,-0.629311 -0.671266,-0.629311c-0.272701,0 -0.573373,0.083909 -0.790136,0.202779l-0.125862,-0.314656c0.26571,-0.132855 0.622319,-0.230748 0.964945,-0.230748c0.68525,0 1.104791,0.321649 1.104791,1.027876l0,2.027782c-0.251725,0.132855 -0.629311,0.223755 -1.048853,0.223755l0.000001,0zm0.56638,-1.845981c-0.80412,0.0909 -1.2796,0.314656 -1.2796,0.874044c0,0.426534 0.26571,0.671266 0.755174,0.671266c0.202779,0 0.398564,-0.041954 0.524426,-0.104885l0,-1.440425z" id="svg_33"></path>
    <path stroke="null" class="st0" d="m57.463152,40.611394l-0.377587,-1.216669l-1.39847,0l-0.38458,1.216669l-0.510441,0l1.356516,-4.034587l0.510441,0l1.377494,4.034587l-0.573373,0zm-0.943967,-3.06265c-0.048946,-0.14684 -0.0909,-0.370595 -0.11887,-0.524426l-0.013985,0c-0.020977,0.132855 -0.069924,0.349618 -0.125862,0.524426l-0.47548,1.524333l1.195692,0l-0.461495,-1.524333z" id="svg_34"></path>
    <path stroke="null" class="st0" d="m59.637773,40.674325c-0.762166,0 -1.223661,-0.678259 -1.223661,-1.643203c0,-0.964945 0.468488,-1.63621 1.223661,-1.63621c0.293679,0 0.538411,0.076916 0.706228,0.202779l-0.125862,0.307664c-0.125862,-0.0909 -0.307664,-0.160824 -0.496457,-0.160824c-0.503449,0 -0.783144,0.545404 -0.783144,1.272609c0,0.71322 0.286686,1.2796 0.783144,1.2796c0.188794,0 0.370595,-0.055939 0.489465,-0.153831l0.125862,0.321649c-0.160824,0.132855 -0.405556,0.20977 -0.699235,0.20977l0,-0.000002z" id="svg_35"></path>
    <path stroke="null" class="st0" d="m61.980212,40.674325c-0.755174,0 -1.202685,-0.32864 -1.202685,-0.957952c0,-0.762166 0.748181,-1.055845 1.769065,-1.153739l0,-0.195786c0,-0.433526 -0.23774,-0.629311 -0.671266,-0.629311c-0.272701,0 -0.573373,0.083909 -0.790136,0.202779l-0.125862,-0.314656c0.26571,-0.132855 0.622319,-0.230748 0.964945,-0.230748c0.68525,0 1.111784,0.321649 1.111784,1.027876l0,2.027782c-0.258717,0.132855 -0.629311,0.223755 -1.055845,0.223755l0.000001,0zm0.573373,-1.845981c-0.80412,0.0909 -1.2796,0.314656 -1.2796,0.874044c0,0.426534 0.26571,0.671266 0.755174,0.671266c0.202779,0 0.398564,-0.041954 0.524426,-0.104885l0,-1.440425z" id="svg_36"></path>
    <path stroke="null" class="st0" d="m65.0988,40.674325c-0.909006,0 -1.384486,-0.636304 -1.384486,-1.580271c0,-0.929983 0.468488,-1.678165 1.384486,-1.678165c0.160824,0 0.314656,0.020977 0.489465,0.062931l0,-1.468394l0.510441,0l0,4.440144c-0.216763,0.125862 -0.587358,0.223755 -0.999906,0.223755zm0.482472,-2.894834c-0.125862,-0.034961 -0.26571,-0.055939 -0.398564,-0.055939c-0.71322,0 -0.957952,0.629311 -0.957952,1.321555c0,0.741189 0.251725,1.293585 0.895021,1.293585c0.20977,0 0.349618,-0.02797 0.454503,-0.0909l0,-2.4683l0.006992,0l0,-0.000001z" id="svg_37"></path>
    <path stroke="null" class="st0" d="m67.273422,39.2339c0.048946,0.650289 0.377587,1.06983 0.971937,1.06983c0.286686,0 0.59435,-0.083909 0.769159,-0.188794l0.132855,0.335633c-0.223755,0.125862 -0.587358,0.223755 -0.957952,0.223755c-0.902014,0 -1.419447,-0.622319 -1.419447,-1.650195c0,-0.992914 0.47548,-1.629218 1.2796,-1.629218c0.755174,0 1.209677,0.496457 1.209677,1.489371l0,0.055939l-1.985828,0.293679l-0.000001,0zm0.769159,-1.51734c-0.524426,0 -0.790136,0.496457 -0.790136,1.209677l0,0.02797l1.510348,-0.23774c-0.013985,-0.636304 -0.230748,-0.999906 -0.720212,-0.999906l0.000001,-0.000001zm0.069924,-0.615327l-0.300671,0l0.426534,-0.80412c0.076916,-0.055939 0.181801,-0.0909 0.279694,-0.0909c0.104885,0 0.202779,0.041954 0.251725,0.125862l-0.657281,0.769159l0,-0.000001z" id="svg_38"></path>
    <path stroke="null" class="st0" d="m73.489623,40.611394l0,-2.202591c0,-0.419541 -0.188794,-0.68525 -0.650289,-0.68525c-0.258717,0 -0.461495,0.11887 -0.615327,0.300671l0,2.594162l-0.510441,0l0,-2.286499c0,-0.363602 -0.202779,-0.601342 -0.671266,-0.601342c-0.23774,0 -0.419541,0.02797 -0.59435,0.104885l0,2.782956l-0.510441,0l0,-2.992726c0.307664,-0.132855 0.657281,-0.223755 1.083815,-0.223755c0.47548,0 0.741189,0.125862 0.95096,0.370595c0.20977,-0.230748 0.531419,-0.370595 0.909006,-0.370595c0.776151,0 1.111784,0.419541 1.111784,1.020884l0,2.195599l-0.503449,0l0,-0.006992l-0.000001,-0.000001z" id="svg_39"></path>
    <path stroke="null" class="st0" d="m75.090871,36.849509c-0.167816,0 -0.307664,-0.125862 -0.307664,-0.286686c0,-0.160824 0.139847,-0.286686 0.307664,-0.286686s0.314656,0.125862 0.314656,0.286686c0,0.153831 -0.139847,0.286686 -0.314656,0.286686zm-0.251725,3.761885l0,-3.160544l0.517434,0l0,3.160544l-0.517434,0z" id="svg_40"></path>
    <path stroke="null" class="st0" d="m77.293462,40.674325c-0.762166,0 -1.223661,-0.678259 -1.223661,-1.643203c0,-0.964945 0.468488,-1.63621 1.223661,-1.63621c0.293679,0 0.538411,0.076916 0.706228,0.202779l-0.125862,0.307664c-0.125862,-0.0909 -0.314656,-0.160824 -0.496457,-0.160824c-0.503449,0 -0.783144,0.545404 -0.783144,1.272609c0,0.71322 0.286686,1.2796 0.783144,1.2796c0.188794,0 0.370595,-0.055939 0.496457,-0.153831l0.125862,0.321649c-0.167816,0.132855 -0.412549,0.20977 -0.706228,0.20977l0,-0.000002z" id="svg_41"></path>
    <path stroke="null" class="st0" d="m79.6359,40.674325c-0.755174,0 -1.202685,-0.32864 -1.202685,-0.957952c0,-0.762166 0.748181,-1.055845 1.769065,-1.153739l0,-0.195786c0,-0.433526 -0.23774,-0.629311 -0.671266,-0.629311c-0.272701,0 -0.573373,0.083909 -0.790136,0.202779l-0.125862,-0.314656c0.26571,-0.132855 0.622319,-0.230748 0.964945,-0.230748c0.68525,0 1.104791,0.321649 1.104791,1.027876l0,2.027782c-0.251725,0.132855 -0.622319,0.223755 -1.048853,0.223755l0.000001,0zm0.573373,-1.845981c-0.80412,0.0909 -1.2796,0.314656 -1.2796,0.874044c0,0.426534 0.26571,0.671266 0.755174,0.671266c0.202779,0 0.398564,-0.041954 0.524426,-0.104885l0,-1.440425z" id="svg_42"></path>
   </g>
  </g>
 </g>
</svg>