<svg xmlns="http://www.w3.org/2000/svg" xmlns:xlink="http://www.w3.org/1999/xlink" version="1.1" id="Capa_1" x="0px" y="0px" viewBox="0 0 173.86 66.86" style="enable-background:new 0 0 173.86 66.86;" xml:space="preserve">
<style type="text/css">
	.st0{fill:#FFFFFF;}
</style>
<g>
	<g>
		<g>
			<g>
				<path class="st0" d="M40.86,46.59c-9.01,5.84-18.36,5.52-18.36,5.52s-0.26-1.19-0.15-3.25c0.1-2.06,1.23-1.48,2.04-3.1      c0.29-0.59,0.55-1,1.01-2.38c0.02-0.06-0.54-9.91-0.68-14.1c-0.08-2.25-0.5-6.02-1-9.67c-0.29-2.17-0.95-3.89-1.26-5.94      c-0.44-2.97-0.95-6.32-0.95-6.32c-0.37,0.95-0.89,4.49-1.42,8.48c-0.25,1.92-0.51,3.94-0.74,5.83c-0.5,4-1.75,14.72-1.94,15.3      c-0.29,0.88-0.32-0.23-0.32-0.23s0.74-11.24,0.96-16.17c0.11-2.41,0.29-5.06,0.59-7.6c0.23-1.91,0.52-3.76,0.9-5.4      c0,0,1.29-3.89,1.7-3.97c0.41-0.08,1.9,2.45,2.4,4.7c1.14,5.08,1.81,5.73,2.67,11.06c0.82,5.07,1.57,9.31,1.68,10      c0.37,2.52,0.19,10.37-0.45,13.49c-0.15,0.85-0.2,1.17-0.75,1.73c-1.31,1.32-2.23,2.89-2.23,3.92c0,1.03-0.17,1.01,0.07,1.61      c0,0,1.72,2.58,11.62-3.32c0,0,3.09-1.62,3.09-5.19V5.43c0,0-9.81-3.32-17.37-3.32c-7.56,0-17.02,3.31-17.02,3.31v36.01      c0,2.22,0.32,6.37,3.49,7.79c0,0-8.43-2.88-8.43-7.84V2.37C0,2.37,12.87,0,21.97,0c9.1,0,22.19,2.37,22.19,2.37s0,35.7,0,39.07      C44.16,44.8,40.86,46.59,40.86,46.59z"></path>
			</g>
		</g>
		<g>
			<path class="st0" d="M163.12,16.37c-0.9,0.5-2.11,0.75-3.63,0.75c-1.53,0-2.72-0.46-3.57-1.39c-0.85-0.93-1.27-2.22-1.27-3.88     c0-1.67,0.42-3,1.27-3.99c0.82-0.95,1.92-1.43,3.28-1.43c0.61,0,1.13,0.07,1.56,0.2v-4.2h2.35V16.37z M160.77,15.38V7.89     c-0.31-0.09-0.66-0.13-1.04-0.13c-1.83,0-2.74,1.32-2.74,3.96c0,2.6,0.86,3.9,2.57,3.9C160.12,15.61,160.52,15.54,160.77,15.38z"></path>
			<path class="st0" d="M173.85,11.66l-6.37,0.92c0.19,1.93,1.14,2.89,2.84,2.89c1,0,1.88-0.19,2.62-0.57l0.56,1.48     c-0.89,0.49-2.03,0.73-3.43,0.73c-1.49,0-2.67-0.47-3.53-1.41c-0.86-0.94-1.29-2.28-1.29-4.01c0-1.68,0.4-3,1.19-3.94     c0.79-0.94,1.88-1.42,3.25-1.42c1.39,0,2.45,0.45,3.17,1.36C173.57,8.6,173.9,9.92,173.85,11.66z M171.65,10.74     c0-1.97-0.68-2.95-2.05-2.95c-0.72,0-1.28,0.29-1.66,0.87c-0.42,0.63-0.62,1.54-0.6,2.74L171.65,10.74z"></path>
		</g>
		<g>
			<path class="st0" d="M55.49,44.67H51.8V21.85h3.69V44.67z"></path>
			<path class="st0" d="M72.52,36.54c0,2.52-0.55,4.53-1.66,6.02c-1.21,1.61-2.91,2.42-5.11,2.42c-2.2,0-3.9-0.81-5.11-2.42     c-1.11-1.49-1.66-3.5-1.66-6.02c0-2.54,0.55-4.56,1.66-6.05c1.21-1.61,2.91-2.42,5.11-2.42c2.22,0,3.92,0.81,5.11,2.42     C71.96,31.98,72.52,34,72.52,36.54z M68.86,36.51c0-4.07-1.04-6.11-3.11-6.11c-2.08,0-3.11,2.04-3.11,6.11     c0,3.97,1.04,5.96,3.11,5.96C67.82,42.47,68.86,40.48,68.86,36.51z"></path>
			<path class="st0" d="M85.17,39.98c0,1.37-0.53,2.54-1.6,3.51c-1.07,0.97-2.47,1.45-4.21,1.45c-1.86,0-3.36-0.39-4.51-1.18     l0.97-2.36c0.79,0.63,1.81,0.94,3.06,0.94c0.75,0,1.35-0.22,1.82-0.65c0.46-0.43,0.7-0.98,0.7-1.65c0-0.69-0.18-1.22-0.54-1.62     c-0.36-0.39-0.98-0.75-1.84-1.07c-2.48-0.95-3.72-2.47-3.72-4.57c0-1.33,0.48-2.45,1.44-3.36c0.96-0.91,2.2-1.36,3.73-1.36     c1.65,0,3.06,0.38,4.23,1.15l-0.91,2.15c-0.75-0.61-1.61-0.91-2.6-0.91c-0.72,0-1.29,0.21-1.71,0.62     c-0.41,0.41-0.62,0.92-0.62,1.53c0,1.07,0.81,1.93,2.42,2.57C83.87,36.22,85.17,37.82,85.17,39.98z"></path>
			<path class="st0" d="M112.4,44.67h-4.31l-1.74-5.82h-7.3l-1.81,5.82H93.5l7.49-22.62h3.94L112.4,44.67z M105.76,36.42l-2.33-7.97     c-0.33-1.12-0.53-2.03-0.59-2.73h-0.07c-0.11,0.59-0.32,1.5-0.62,2.73l-2.43,7.97H105.76z"></path>
			<path class="st0" d="M127.58,44.67h-3.69V33.12c0-1.81-0.98-2.72-2.93-2.72c-0.93,0-1.77,0.15-2.54,0.45v13.82h-3.69V29.25     c1.67-0.79,3.8-1.18,6.38-1.18c2.28,0,3.96,0.5,5.05,1.51c0.95,0.85,1.42,2.01,1.42,3.48V44.67z"></path>
			<path class="st0" d="M144.22,43.79c-1.41,0.79-3.31,1.18-5.69,1.18c-2.4,0-4.27-0.72-5.6-2.18c-1.33-1.45-2-3.48-2-6.08     c0-2.62,0.67-4.71,2-6.26c1.29-1.49,3.01-2.24,5.14-2.24c0.95,0,1.76,0.1,2.45,0.31v-6.6h3.69V43.79z M140.52,42.25V30.52     c-0.48-0.14-1.03-0.21-1.63-0.21c-2.86,0-4.3,2.07-4.3,6.2c0,4.07,1.34,6.11,4.02,6.11C139.51,42.61,140.14,42.49,140.52,42.25z"></path>
			<path class="st0" d="M161.01,36.42l-9.98,1.45c0.3,3.02,1.78,4.54,4.44,4.54c1.57,0,2.94-0.3,4.11-0.91l0.88,2.32     c-1.39,0.77-3.19,1.15-5.38,1.15c-2.34,0-4.18-0.74-5.53-2.21c-1.35-1.47-2.03-3.57-2.03-6.29c0-2.64,0.62-4.7,1.86-6.18     c1.24-1.48,2.94-2.22,5.1-2.22c2.18,0,3.83,0.71,4.96,2.13C160.57,31.62,161.09,33.7,161.01,36.42z M157.56,34.97     c0-3.09-1.07-4.63-3.21-4.63c-1.13,0-2,0.45-2.6,1.36c-0.66,0.99-0.98,2.42-0.94,4.29L157.56,34.97z"></path>
			<path class="st0" d="M173.69,39.98c0,1.37-0.54,2.54-1.6,3.51c-1.07,0.97-2.47,1.45-4.21,1.45c-1.85,0-3.36-0.39-4.51-1.18     l0.97-2.36c0.79,0.63,1.81,0.94,3.06,0.94c0.75,0,1.35-0.22,1.81-0.65c0.46-0.43,0.7-0.98,0.7-1.65c0-0.69-0.18-1.22-0.54-1.62     c-0.36-0.39-0.98-0.75-1.84-1.07c-2.48-0.95-3.72-2.47-3.72-4.57c0-1.33,0.48-2.45,1.44-3.36c0.96-0.91,2.2-1.36,3.73-1.36     c1.65,0,3.06,0.38,4.23,1.15l-0.91,2.15c-0.74-0.61-1.61-0.91-2.6-0.91c-0.72,0-1.29,0.21-1.71,0.62     c-0.41,0.41-0.62,0.92-0.62,1.53c0,1.07,0.81,1.93,2.42,2.57C172.39,36.22,173.69,37.82,173.69,39.98z"></path>
		</g>
		<g>
			<path class="st0" d="M71.27,16.96h-2.35V9.59c0-1.16-0.62-1.74-1.87-1.74c-0.59,0-1.13,0.1-1.62,0.29v8.82h-2.35V7.12     c1.07-0.5,2.42-0.75,4.07-0.75c1.45,0,2.52,0.32,3.22,0.96c0.6,0.54,0.91,1.28,0.91,2.22V16.96z"></path>
			<path class="st0" d="M76.34,3.6c0,0.32-0.13,0.6-0.38,0.82c-0.25,0.23-0.56,0.34-0.92,0.34c-0.36,0-0.67-0.11-0.92-0.34     c-0.25-0.23-0.38-0.5-0.38-0.82c0-0.32,0.13-0.6,0.38-0.83c0.25-0.23,0.56-0.35,0.92-0.35c0.36,0,0.67,0.11,0.92,0.34     C76.22,2.99,76.34,3.27,76.34,3.6z M76.22,16.96h-2.35V6.56h2.35V16.96z"></path>
			<path class="st0" d="M86.93,6.56l-3.34,10.4h-2.24l-3.4-10.4h2.51l1.83,6.71c0.14,0.5,0.22,0.98,0.25,1.43h0.04     c0.06-0.37,0.15-0.85,0.27-1.43l1.87-6.71H86.93z"></path>
			<path class="st0" d="M96.79,11.69l-6.37,0.93c0.19,1.93,1.14,2.89,2.84,2.89c1,0,1.88-0.19,2.63-0.57l0.56,1.48     c-0.89,0.49-2.03,0.73-3.43,0.73c-1.49,0-2.67-0.47-3.53-1.41c-0.86-0.94-1.29-2.27-1.29-4.01c0-1.68,0.39-3,1.19-3.94     c0.79-0.95,1.88-1.42,3.25-1.42c1.39,0,2.44,0.45,3.16,1.36C96.5,8.64,96.84,9.96,96.79,11.69z M94.59,10.77     c0-1.97-0.68-2.95-2.05-2.95c-0.72,0-1.28,0.29-1.66,0.87c-0.43,0.63-0.62,1.54-0.6,2.74L94.59,10.77z"></path>
			<path class="st0" d="M103.94,6.38l-0.47,1.72c-0.35-0.12-0.71-0.17-1.08-0.17c-0.45,0-0.83,0.08-1.12,0.25v8.78h-2.35V7.12     C100.07,6.56,101.74,6.32,103.94,6.38z"></path>
			<path class="st0" d="M111.44,13.97c0,0.88-0.34,1.62-1.02,2.24c-0.68,0.62-1.58,0.93-2.68,0.93c-1.18,0-2.14-0.25-2.88-0.75     l0.62-1.51c0.5,0.4,1.15,0.6,1.95,0.6c0.48,0,0.86-0.14,1.16-0.42c0.3-0.28,0.44-0.63,0.44-1.05c0-0.44-0.12-0.78-0.35-1.03     c-0.23-0.25-0.62-0.48-1.18-0.69c-1.58-0.6-2.37-1.58-2.37-2.91c0-0.85,0.31-1.56,0.92-2.14c0.61-0.58,1.4-0.87,2.38-0.87     c1.05,0,1.95,0.24,2.7,0.73l-0.58,1.37c-0.48-0.39-1.03-0.58-1.66-0.58c-0.46,0-0.83,0.13-1.09,0.4c-0.26,0.26-0.4,0.59-0.4,0.98     c0,0.68,0.51,1.23,1.54,1.64C110.61,11.57,111.44,12.6,111.44,13.97z"></path>
			<path class="st0" d="M116.04,3.6c0,0.32-0.13,0.6-0.38,0.82c-0.25,0.23-0.56,0.34-0.92,0.34c-0.36,0-0.66-0.11-0.92-0.34     c-0.25-0.23-0.38-0.5-0.38-0.82c0-0.32,0.13-0.6,0.38-0.83c0.25-0.23,0.56-0.35,0.92-0.35c0.36,0,0.67,0.11,0.92,0.34     C115.92,2.99,116.04,3.27,116.04,3.6z M115.92,16.96h-2.35V6.56h2.35V16.96z"></path>
			<path class="st0" d="M126.6,16.4c-0.9,0.5-2.11,0.75-3.63,0.75c-1.53,0-2.72-0.46-3.57-1.39c-0.85-0.93-1.27-2.22-1.27-3.88     c0-1.67,0.43-3.01,1.27-3.99c0.82-0.95,1.92-1.43,3.28-1.43c0.6,0,1.13,0.07,1.56,0.2v-4.2h2.35V16.4z M124.25,15.41V7.93     c-0.31-0.09-0.65-0.14-1.04-0.14c-1.83,0-2.74,1.32-2.74,3.96c0,2.6,0.86,3.9,2.57,3.9C123.6,15.64,124.01,15.57,124.25,15.41z"></path>
			<path class="st0" d="M136.62,16.4c-0.94,0.5-2.19,0.75-3.76,0.75c-2.83,0-4.24-1.05-4.24-3.16c0-1.26,0.57-2.2,1.72-2.83     c0.9-0.49,2.26-0.82,4.09-1V9.59c0-1.14-0.69-1.72-2.06-1.72c-0.86,0-1.73,0.21-2.6,0.63l-0.54-1.35     c1.08-0.53,2.27-0.79,3.57-0.79c2.56,0,3.84,1.2,3.84,3.59V16.4z M134.42,15.56v-4.29c-1.23,0.15-2.1,0.39-2.62,0.71     c-0.64,0.4-0.96,1.04-0.96,1.93c0,1.29,0.73,1.93,2.17,1.93C133.57,15.85,134.04,15.75,134.42,15.56z"></path>
			<path class="st0" d="M147.22,16.4c-0.9,0.5-2.11,0.75-3.63,0.75c-1.53,0-2.72-0.46-3.57-1.39c-0.85-0.93-1.27-2.22-1.27-3.88     c0-1.67,0.42-3.01,1.27-3.99c0.82-0.95,1.92-1.43,3.28-1.43c0.61,0,1.13,0.07,1.56,0.2v-4.2h2.35V16.4z M144.87,15.41V7.93     c-0.31-0.09-0.66-0.14-1.04-0.14c-1.83,0-2.74,1.32-2.74,3.96c0,2.6,0.85,3.9,2.57,3.9C144.22,15.64,144.62,15.57,144.87,15.41z"></path>
		</g>
		<path class="st0" d="M51.77,2.48h2.5v11.18c0,1.23,0.66,1.85,1.99,1.85c0.63,0,1.2-0.1,1.72-0.31V2.48h2.5v13.81    c-1.13,0.53-2.58,0.8-4.33,0.8c-1.54,0-2.69-0.34-3.42-1.03c-0.64-0.57-0.96-1.36-0.96-2.36V2.48z"></path>
	</g>
	<g>
		<path class="st0" d="M125.32,66.28c-0.5,0.39-1.23,0.58-2.17,0.58c-1.37,0-2.42-0.58-3.13-1.74c-0.59-0.96-0.89-2.18-0.89-3.65    c0-1.43,0.31-2.64,0.92-3.63c0.72-1.17,1.76-1.75,3.12-1.75c0.89,0,1.61,0.19,2.16,0.58l-0.42,1.16    c-0.41-0.24-0.86-0.36-1.36-0.36c-0.9,0-1.55,0.47-1.96,1.42c-0.3,0.68-0.45,1.54-0.45,2.58c0,0.99,0.16,1.84,0.47,2.53    c0.42,0.93,1.06,1.39,1.93,1.39c0.5,0,0.94-0.12,1.32-0.36L125.32,66.28z"></path>
		<path class="st0" d="M132.32,62.94c0,1.1-0.24,2-0.71,2.69c-0.55,0.8-1.35,1.2-2.41,1.2c-1.06,0-1.86-0.4-2.41-1.2    c-0.47-0.69-0.71-1.58-0.71-2.69c0-1.11,0.24-2.01,0.71-2.7c0.54-0.8,1.34-1.2,2.41-1.2c1.07,0,1.87,0.4,2.41,1.2    C132.08,60.92,132.32,61.82,132.32,62.94z M130.64,62.91c0-1.87-0.48-2.8-1.43-2.8c-0.96,0-1.43,0.93-1.43,2.8    c0,1.82,0.48,2.74,1.43,2.74C130.16,65.65,130.64,64.74,130.64,62.91z"></path>
		<path class="st0" d="M135.63,66.68h-1.71V56.14h1.71V66.68z"></path>
		<path class="st0" d="M143.46,62.94c0,1.1-0.24,2-0.71,2.69c-0.55,0.8-1.35,1.2-2.41,1.2c-1.06,0-1.86-0.4-2.41-1.2    c-0.47-0.69-0.71-1.58-0.71-2.69c0-1.11,0.24-2.01,0.71-2.7c0.54-0.8,1.34-1.2,2.41-1.2c1.07,0,1.87,0.4,2.41,1.2    C143.22,60.92,143.46,61.82,143.46,62.94z M141.77,62.91c0-1.87-0.48-2.8-1.43-2.8c-0.96,0-1.43,0.93-1.43,2.8    c0,1.82,0.48,2.74,1.43,2.74C141.29,65.65,141.77,64.74,141.77,62.91z"></path>
		<path class="st0" d="M155.12,66.68h-1.7v-5.33c0-0.82-0.42-1.23-1.27-1.23c-0.49,0-0.91,0.17-1.25,0.51v6.04h-1.7v-5.36    c0-0.8-0.47-1.19-1.41-1.19c-0.41,0-0.78,0.07-1.11,0.21v6.35h-1.7v-7.1c0.75-0.36,1.69-0.54,2.81-0.54    c1.06,0,1.84,0.27,2.34,0.82c0.59-0.55,1.4-0.82,2.41-0.82c0.74,0,1.36,0.2,1.84,0.6c0.49,0.4,0.73,0.96,0.73,1.7V66.68z"></path>
		<path class="st0" d="M163.04,62.75c0,1.23-0.29,2.2-0.88,2.91c-0.63,0.77-1.55,1.16-2.76,1.16c-1.09,0-1.92-0.18-2.48-0.54V56.16    h1.68v3.23c0.44-0.2,0.94-0.31,1.48-0.31c0.97,0,1.73,0.39,2.25,1.16C162.81,60.9,163.04,61.74,163.04,62.75z M161.35,62.86    c0-1.86-0.58-2.79-1.73-2.79c-0.41,0-0.75,0.07-1.02,0.22v5.34c0.23,0.1,0.52,0.15,0.86,0.15    C160.73,65.79,161.35,64.81,161.35,62.86z"></path>
		<path class="st0" d="M166.41,57.05c0,0.24-0.09,0.44-0.28,0.6c-0.19,0.16-0.4,0.24-0.65,0.24c-0.25,0-0.47-0.08-0.65-0.24    c-0.19-0.16-0.28-0.36-0.28-0.6s0.09-0.44,0.28-0.61c0.19-0.16,0.4-0.24,0.65-0.24c0.25,0,0.47,0.08,0.65,0.24    C166.31,56.59,166.41,56.8,166.41,57.05z M166.32,66.68h-1.71v-7.5h1.71V66.68z"></path>
		<path class="st0" d="M173.62,66.28c-0.68,0.36-1.58,0.54-2.71,0.54c-2.04,0-3.06-0.76-3.06-2.28c0-0.97,0.49-1.69,1.46-2.16    c0.6-0.29,1.51-0.49,2.73-0.61v-0.4c0-0.83-0.5-1.24-1.49-1.24c-0.62,0-1.25,0.15-1.88,0.46l-0.39-0.97    c0.78-0.38,1.64-0.57,2.58-0.57c1.85,0,2.77,0.86,2.77,2.59V66.28z M172.03,65.66v-3.09c-0.83,0.1-1.42,0.25-1.76,0.43    c-0.56,0.3-0.84,0.79-0.84,1.48c0,0.93,0.53,1.39,1.58,1.39C171.41,65.87,171.75,65.8,172.03,65.66z"></path>
	</g>
</g>
<g>
</g>
<g>
</g>
<g>
</g>
<g>
</g>
<g>
</g>
<g>
</g>
</svg>