<?xml version="1.0" encoding="utf-8"?>
<!-- Generator: Adobe Illustrator 23.0.4, SVG Export Plug-In . SVG Version: 6.00 Build 0)  -->
<svg version="1.1" id="Capa_1" xmlns="http://www.w3.org/2000/svg" xmlns:xlink="http://www.w3.org/1999/xlink" x="0px" y="0px"
	 viewBox="0 0 51 44" style="enable-background:new 0 0 51 44;" xml:space="preserve">
<style type="text/css">
	.st0{fill:none;stroke:#FFDC00;stroke-width:2;stroke-miterlimit:10;}
	.st1{fill:none;stroke:#FFDC00;stroke-miterlimit:10;}
</style>
<g>
	<path class="st0" d="M24,37.9c-0.9-1.8-1.8-3.5-2.7-5.3c-1.9-3.8-3.9-7.6-5.8-11.4c-2.3-4.7-0.4-10.4,4.3-12.7s10.4-0.4,12.7,4.3
		c0.4,0.9,0.7,1.8,0.9,2.7c0.4,1.9,0.1,3.8-0.7,5.5c-2.8,5.6-5.6,11.1-8.5,16.6C24.1,37.7,24.1,37.8,24,37.9z"/>
	<path class="st1" d="M18.4,17c0,3.1,2.5,5.7,5.7,5.7s5.7-2.5,5.7-5.7s-2.5-5.7-5.7-5.7c0,0,0,0-0.1,0C20.9,11.4,18.4,13.9,18.4,17z
		"/>
</g>
</svg>
